<svg xmlns="http://www.w3.org/2000/svg" version="1.1" xmlns:xlink="http://www.w3.org/1999/xlink" xmlns:svgjs="http://svgjs.dev/svgjs" width="1500" height="303" viewBox="0 0 1500 303"><g transform="matrix(1,0,0,1,-0.9090909090909918,-0.29091590205240436)"><svg viewBox="0 0 396 80" data-background-color="#dae0e5" preserveAspectRatio="xMidYMid meet" height="303" width="1500" xmlns="http://www.w3.org/2000/svg" xmlns:xlink="http://www.w3.org/1999/xlink"><g id="tight-bounds" transform="matrix(1,0,0,1,0.2400000000000091,0.07680947908974645)"><svg viewBox="0 0 395.52 79.8463810418205" height="79.8463810418205" width="395.52"><g><svg viewBox="0 0 487.94623263211145 98.50510927049038" height="79.8463810418205" width="395.52"><g transform="matrix(1,0,0,1,92.42623263211149,13.613947808005548)"><svg viewBox="0 0 395.52 71.27721365447928" height="71.27721365447928" width="395.52"><g id="textblocktransform"><svg viewBox="0 0 395.52 71.27721365447928" height="71.27721365447928" width="395.52" id="textblock"><g><svg viewBox="0 0 395.52 71.27721365447928" height="71.27721365447928" width="395.52"><g transform="matrix(1,0,0,1,0,0)"><svg width="395.52" viewBox="2.2 -38.38 281.76 50.78" height="71.27721365447928" data-palette-color="#264653"><path d="M18.6-5.98L18.6-5.98Q20.39-5.98 21.4-6.35 22.41-6.71 22.97-7.25 23.54-7.79 23.95-8.33L23.95-8.33Q24.34-8.81 24.6-9.06 24.85-9.3 25.32-9.4L25.32-9.4Q25.71-9.52 26.57-9.56 27.44-9.59 28.31-9.59 29.17-9.59 29.52-9.55L29.52-9.55Q30.03-9.52 30.22-9.35L30.22-9.35Q30.42-9.18 30.47-8.62L30.47-8.62Q30.54-7.84 30.55-6.76 30.57-5.69 30.52-4.91L30.52-4.91Q30.49-4.66 30.43-4.49 30.37-4.32 30.18-3.98L30.18-3.98Q29.93-3.59 29.22-2.84 28.52-2.1 27.15-1.31 25.78-0.51 23.62 0.05 21.46 0.61 18.31 0.61L18.31 0.61Q14.94 0.61 12.01-0.26 9.08-1.12 6.87-3.17 4.66-5.22 3.43-8.72 2.2-12.21 2.2-17.43L2.2-17.43Q2.2-23.24 4.21-27.31 6.23-31.37 9.94-33.5 13.65-35.62 18.73-35.62L18.73-35.62Q22.29-35.62 24.45-34.89 26.61-34.16 27.73-33.17 28.86-32.18 29.32-31.45L29.32-31.45Q29.49-31.18 29.57-30.97 29.64-30.76 29.66-30.32L29.66-30.32Q29.74-29.74 29.7-28.61 29.66-27.49 29.52-26.64L29.52-26.64Q29.42-26.1 29.2-25.93L29.2-25.93Q29.1-25.83 28.86-25.76 28.61-25.68 28.13-25.68L28.13-25.68Q27.34-25.68 26.37-25.74 25.39-25.81 24.9-25.88L24.9-25.88Q24.32-25.98 24.05-26.16 23.78-26.34 23.51-26.73L23.51-26.73Q23.07-27.37 22-28.2 20.92-29.03 18.46-29.03L18.46-29.03Q14.99-29.03 12.74-26.35 10.5-23.68 10.5-17.7L10.5-17.7Q10.5-11.74 12.85-8.86 15.21-5.98 18.6-5.98ZM41.79 0.61L41.79 0.61Q38.21 0.61 36.09-1.4 33.98-3.42 33.98-6.96L33.98-6.96Q33.98-8.79 34.65-10.36 35.32-11.94 37-13.15 38.67-14.36 41.68-15.09 44.7-15.82 49.39-15.94L49.39-15.94Q49.39-18.16 48.28-19.14 47.17-20.12 44.94-20.12L44.94-20.12Q42.94-20.12 41.67-19.43 40.4-18.75 40.09-18.51L40.09-18.51Q39.74-18.21 39.26-18.29L39.26-18.29Q38.6-18.38 37.85-18.63 37.11-18.87 36.25-19.19L36.25-19.19Q36.13-19.24 35.98-19.35 35.84-19.46 35.81-19.68L35.81-19.68Q35.81-19.8 35.84-19.98 35.86-20.17 35.96-20.65L35.96-20.65Q36.06-21.14 36.25-21.86 36.45-22.58 36.62-22.97L36.62-22.97Q36.84-23.39 37.35-23.75L37.35-23.75Q37.77-24.1 39.87-24.85 41.97-25.61 45.94-25.61L45.94-25.61Q56.91-25.61 56.91-14.94L56.91-14.94 56.91-1.12Q56.91-0.66 56.65-0.33 56.39 0 55.78 0L55.78 0 52.12 0Q51.73 0 51.43-0.11 51.12-0.22 50.85-0.54L50.85-0.54 49.34-2.49 49.17-2.49Q48.04-0.85 46.15-0.12 44.26 0.61 41.79 0.61ZM44.48-5.05L44.48-5.05Q46.73-5.05 47.87-6.2 49.02-7.35 49.34-8.57L49.34-8.57 49.34-11.28Q45.94-11.28 44.25-10.75 42.55-10.23 41.99-9.39 41.43-8.54 41.43-7.57L41.43-7.57Q41.43-6.15 42.31-5.6 43.19-5.05 44.48-5.05ZM85.86-22.44L85.86-22.44Q86.76-23.54 88.65-24.57 90.55-25.61 93.99-25.61L93.99-25.61Q98.87-25.61 101.04-23.1 103.22-20.58 103.22-15.55L103.22-15.55 103.22-1.29Q103.22-0.56 102.91-0.28 102.61 0 101.87 0L101.87 0 96.85 0Q96.11 0 95.81-0.28 95.5-0.56 95.5-1.29L95.5-1.29 95.5-14.28Q95.5-17.02 94.5-18.2 93.5-19.38 91.5-19.38L91.5-19.38Q89.72-19.38 88.68-18.59 87.64-17.8 87.2-16.46L87.2-16.46 87.2-1.29Q87.2-0.56 86.9-0.28 86.59 0 85.86 0L85.86 0 80.83 0Q80.1 0 79.79-0.28 79.49-0.56 79.49-1.29L79.49-1.29 79.49-14.28Q79.49-16.94 78.39-18.16 77.29-19.38 75.51-19.38L75.51-19.38Q73.82-19.38 72.8-18.55 71.77-17.72 71.21-16.46L71.21-16.46 71.21-1.29Q71.21-0.56 70.91-0.28 70.6 0 69.87 0L69.87 0 64.84 0Q64.11 0 63.8-0.28 63.5-0.56 63.5-1.29L63.5-1.29 63.5-21.75Q63.5-22.34 63.74-22.66L63.74-22.66Q64.25-23.34 64.97-24.05 65.69-24.76 66.74-25.56L66.74-25.56Q67.06-25.81 67.35-25.81L67.35-25.81Q67.62-25.81 67.96-25.56L67.96-25.56Q68.99-24.76 69.72-24.02 70.45-23.29 71.02-22.51L71.02-22.51 71.14-22.51Q71.97-23.56 73.73-24.58 75.48-25.61 78.75-25.61L78.75-25.61Q81.88-25.61 83.39-24.67 84.91-23.73 85.86-22.44ZM125.36-25.61L125.36-25.61Q128.92-25.61 131.23-24.01 133.54-22.41 134.67-19.62 135.81-16.82 135.81-13.21L135.81-13.21Q135.81-9.3 134.48-6.18 133.15-3.05 130.56-1.22 127.97 0.61 124.14 0.61L124.14 0.61Q122.16 0.61 120.88 0.16 119.6-0.29 118.83-0.92 118.06-1.54 117.62-2.05L117.62-2.05 117.52-2.05 117.52 8.35Q117.52 8.94 117.28 9.25L117.28 9.25Q116.25 10.6 114.27 12.16L114.27 12.16Q113.93 12.4 113.66 12.4L113.66 12.4Q113.37 12.4 113.05 12.16L113.05 12.16Q112 11.35 111.28 10.64 110.56 9.94 110.05 9.25L110.05 9.25Q109.81 8.94 109.81 8.35L109.81 8.35 109.81-21.75Q109.81-22.34 110.05-22.66L110.05-22.66Q110.56-23.34 111.28-24.05 112-24.76 113.05-25.56L113.05-25.56Q113.37-25.81 113.71-25.81L113.71-25.81Q114.03-25.81 114.37-25.56L114.37-25.56Q115.4-24.76 116.13-24.02 116.86-23.29 117.42-22.51L117.42-22.51 117.55-22.51Q117.96-23.02 118.82-23.75 119.67-24.49 121.24-25.05 122.82-25.61 125.36-25.61ZM122.36-5.62L122.36-5.62Q124.99-5.62 126.45-7.46 127.9-9.3 127.9-12.79L127.9-12.79Q127.9-19.38 122.48-19.38L122.48-19.38Q120.18-19.38 119.08-18.44 117.99-17.5 117.52-16.46L117.52-16.46 117.52-11.16Q117.52-8.79 118.74-7.2 119.96-5.62 122.36-5.62ZM161.29-14.01L161.49-14.01Q161.83-15.33 162.23-16.61 162.64-17.9 163.22-19.48L163.22-19.48Q163.74-20.9 164.47-22.74 165.2-24.58 166.02-26.49 166.84-28.39 167.62-30.03 168.4-31.67 169.03-32.64L169.03-32.64Q169.81-33.84 170.73-34.42 171.65-35.01 173.43-35.01L173.43-35.01 176.63-35.01Q177.9-35.01 178.76-34.63 179.63-34.25 179.99-32.84L179.99-32.84Q180.26-31.79 180.51-29.76 180.75-27.73 180.92-24.15 181.09-20.56 181.19-14.93 181.29-9.3 181.29-1.03L181.29-1.03Q181.29-0.59 181-0.29 180.7 0 180.29 0L180.29 0 174.72 0Q174.31 0 174.01-0.29 173.72-0.59 173.72-1.05L173.72-1.05Q173.72-7.5 173.72-11.99 173.72-16.48 173.7-19.43 173.67-22.39 173.64-24.13 173.6-25.88 173.53-26.83L173.53-26.83 173.38-26.83Q172.08-23.85 170.62-20.2 169.16-16.55 167.76-12.68 166.37-8.81 165.27-5.13L165.27-5.13Q164.96-4.03 164.48-3.6 164-3.17 162.32-3.17L162.32-3.17 159.51-3.17Q158.07-3.17 157.59-3.54 157.12-3.91 156.78-5.13L156.78-5.13Q155.97-7.91 154.99-11.01 154.02-14.11 152.98-17.1 151.94-20.09 150.98-22.62 150.01-25.15 149.26-26.83L149.26-26.83 149.11-26.83Q148.92-23.95 148.77-19.82 148.62-15.7 148.54-10.86 148.45-6.03 148.43-1L148.43-1Q148.43-0.56 148.13-0.28 147.84 0 147.43 0L147.43 0 142.42 0Q142.01 0 141.71-0.29 141.42-0.59 141.42-1.05L141.42-1.05Q141.45-14.06 141.95-21.83 142.45-29.59 143.03-32.23L143.03-32.23Q143.42-33.96 144.41-34.48 145.4-35.01 146.67-35.01L146.67-35.01 150.62-35.01Q151.97-35.01 152.59-34.53 153.21-34.06 154.12-32.69L154.12-32.69Q154.65-31.88 155.4-30.27 156.14-28.66 156.95-26.7 157.75-24.73 158.47-22.81 159.19-20.9 159.66-19.48L159.66-19.48Q160.15-18.04 160.56-16.69 160.98-15.33 161.29-14.01L161.29-14.01ZM200.5 0.61L200.5 0.61Q196.37 0.61 193.32-0.72 190.27-2.05 188.59-4.86 186.9-7.67 186.9-12.11L186.9-12.11Q186.9-18.77 190.32-22.19 193.74-25.61 199.4-25.61L199.4-25.61Q203.09-25.61 205.64-24.29 208.19-22.97 209.52-20.65 210.85-18.33 210.85-15.36L210.85-15.36Q210.85-12.45 209.36-11.3 207.87-10.16 205.02-10.16L205.02-10.16 194.54-10.16Q194.74-7.64 196.39-6.32 198.03-5 200.87-5L200.87-5Q203.11-5 204.47-5.68 205.82-6.35 206.36-6.74L206.36-6.74Q206.82-7.08 207.41-7.06L207.41-7.06Q207.87-7.06 208.74-6.87 209.61-6.69 210.46-6.2L210.46-6.2Q211.07-5.88 211.07-5.32L211.07-5.32Q211.07-5 210.95-4.42L210.95-4.42Q210.88-4.08 210.71-3.43 210.53-2.78 210.27-2.22L210.27-2.22Q210.12-1.95 209.8-1.71L209.8-1.71Q209.31-1.37 208.23-0.81 207.14-0.24 205.26 0.18 203.38 0.61 200.5 0.61ZM194.49-15.16L194.49-15.16 202.45-15.16Q203.7-15.16 203.7-16.31L203.7-16.31Q203.7-18.04 202.61-19.23 201.53-20.41 199.35-20.41L199.35-20.41Q196.98-20.41 195.87-18.9 194.76-17.38 194.49-15.16ZM225.06 0.61L225.06 0.61Q221.81 0.61 219.53-0.99 217.25-2.59 216.06-5.41 214.88-8.23 214.88-11.91L214.88-11.91Q214.88-16.77 216.6-19.79 218.32-22.8 221.46-24.22 224.59-25.63 228.87-25.63L228.87-25.63Q230.33-25.63 231.3-25.49 232.26-25.34 232.68-25.22L232.68-25.22 232.68-34.33Q232.68-34.91 232.92-35.23L232.92-35.23Q233.94-36.57 235.92-38.13L235.92-38.13Q236.26-38.38 236.53-38.38L236.53-38.38Q236.85-38.38 237.14-38.13L237.14-38.13Q238.19-37.33 238.91-36.62 239.63-35.91 240.15-35.23L240.15-35.23Q240.39-34.91 240.39-34.33L240.39-34.33 240.39-1.12Q240.39-0.66 240.07-0.33 239.76 0 239.27 0L239.27 0 235.63 0Q235.24 0 234.93-0.11 234.63-0.22 234.36-0.54L234.36-0.54 232.85-2.49 232.68-2.49Q232.36-2 231.54-1.26 230.72-0.51 229.17 0.05 227.62 0.61 225.06 0.61ZM227.43-5.64L227.43-5.64Q229.62-5.64 230.88-6.47 232.14-7.3 232.68-8.57L232.68-8.57 232.68-18.8Q232.28-19.04 231.38-19.38 230.48-19.73 228.84-19.73L228.84-19.73Q225.82-19.73 224.3-17.75 222.79-15.77 222.79-12.43L222.79-12.43Q222.79-8.96 224.06-7.3 225.33-5.64 227.43-5.64ZM245.86-33.2L245.86-33.2Q245.86-33.52 246.05-33.76 246.25-34.01 246.56-34.4L246.56-34.4Q247.25-35.18 248.15-36.05 249.05-36.91 249.98-37.72L249.98-37.72Q250.57-38.18 250.86-38.18L250.86-38.18Q251.15-38.18 251.76-37.72L251.76-37.72Q253.74-36.01 255.13-34.4L255.13-34.4Q255.45-34.03 255.66-33.78 255.87-33.52 255.87-33.2L255.87-33.2Q255.87-32.89 255.66-32.64 255.45-32.4 255.11-31.98L255.11-31.98Q254.45-31.23 253.57-30.36 252.69-29.49 251.76-28.71L251.76-28.71Q251.42-28.42 251.23-28.33 251.03-28.25 250.86-28.25L250.86-28.25Q250.69-28.25 250.51-28.33 250.32-28.42 249.93-28.71L249.93-28.71Q248.96-29.49 248.1-30.36 247.25-31.23 246.56-32.03L246.56-32.03Q246.25-32.42 246.05-32.65 245.86-32.89 245.86-33.2ZM254.69-23.71L254.69-1.29Q254.69-0.56 254.39-0.28 254.08 0 253.35 0L253.35 0 248.32 0Q247.59 0 247.28-0.28 246.98-0.56 246.98-1.29L246.98-1.29 246.98-23.71Q246.98-24.44 247.28-24.72 247.59-25 248.32-25L248.32-25 253.35-25Q254.08-25 254.39-24.72 254.69-24.44 254.69-23.71L254.69-23.71ZM271.88-8.47L271.88-8.47Q269.29-6.98 268.29-5.22 267.29-3.47 267.29-0.9L267.29-0.9Q267.29-0.39 267.14-0.2 267 0 266.51 0L266.51 0 260.82 0Q259.75 0 259.75-1.39L259.75-1.39Q259.75-4.71 261.1-7.32 262.46-9.94 265.87-11.99L265.87-11.99Q263.29-13.43 261.81-15.89 260.33-18.36 260.33-21.12L260.33-21.12 260.33-21.51Q260.33-22.09 260.58-22.41L260.58-22.41Q261.6-23.75 263.58-25.32L263.58-25.32Q263.92-25.56 264.19-25.56L264.19-25.56Q264.51-25.56 264.8-25.32L264.8-25.32Q265.85-24.51 266.57-23.8 267.29-23.1 267.8-22.41L267.8-22.41Q268.05-22.09 268.05-21.51L268.05-21.51 268.05-21.12Q268.05-17.63 272.1-15.72L272.1-15.72Q273.95-16.75 274.72-18.09 275.49-19.43 275.49-21.12L275.49-21.12 275.49-21.51Q275.49-22.09 275.74-22.41L275.74-22.41Q276.71-23.75 278.67-25.32L278.67-25.32Q278.98-25.56 279.25-25.56L279.25-25.56Q279.57-25.56 279.84-25.32L279.84-25.32Q280.86-24.51 281.57-23.8 282.28-23.1 282.77-22.41L282.77-22.41Q283.01-22.09 283.01-21.51L283.01-21.51 283.01-21.12Q283.01-18.09 281.67-15.89 280.33-13.7 278.15-12.26L278.15-12.26Q281.18-10.55 282.57-7.75 283.96-4.96 283.96-1.39L283.96-1.39Q283.96-0.56 283.77-0.28 283.57 0 282.91 0L282.91 0 277.1 0Q276.25 0 276.25-1.17L276.25-1.17Q276.25-2.76 275.94-4 275.64-5.25 274.71-6.34 273.78-7.42 271.88-8.47Z" opacity="1" transform="matrix(1,0,0,1,0,0)" fill="#264653" class="wordmark-text-0" data-fill-palette-color="primary" id="text-0"></path></svg></g></svg></g></svg></g></svg></g><g><svg viewBox="0 0 75.59939314141664 98.50510927049038" height="98.50510927049038" width="75.59939314141664"><g><svg xmlns="http://www.w3.org/2000/svg" xmlns:xlink="http://www.w3.org/1999/xlink" version="1.1" x="0" y="0" viewBox="30.042 17.275 84 109.451" enable-background="new 0 0 144.083 144" xml:space="preserve" height="98.50510927049038" width="75.59939314141664" class="icon-icon-0" data-fill-palette-color="accent" id="icon-0"><path d="M34.958 101.575H56.23L57.962 98.575 72.041 74.188 86.12 98.575H86.121L87.852 101.575H109.124A2.999 2.999 0 0 0 111.722 97.075L75.505 34.343 83.627 20.275 78.432 17.275 72.041 28.344 65.65 17.275 60.454 20.275 68.576 34.343 32.359 97.075A3 3 0 0 0 34.958 101.575" fill="#264653" data-fill-palette-color="accent"></path><rect x="102.042" y="108.392" width="12" height="6" fill="#264653" data-fill-palette-color="accent"></rect><rect x="54.042" y="108.392" width="12" height="6" fill="#264653" data-fill-palette-color="accent"></rect><rect x="30.042" y="108.392" width="12" height="6" fill="#264653" data-fill-palette-color="accent"></rect><rect x="78.042" y="108.392" width="12" height="6" fill="#264653" data-fill-palette-color="accent"></rect><rect x="42.042" y="120.726" width="12" height="6" fill="#264653" data-fill-palette-color="accent"></rect><rect x="90.042" y="120.726" width="12" height="6" fill="#264653" data-fill-palette-color="accent"></rect><rect x="66.042" y="120.726" width="12" height="6" fill="#264653" data-fill-palette-color="accent"></rect></svg></g></svg></g></svg></g><defs></defs></svg><rect width="395.52" height="79.8463810418205" fill="none" stroke="none" visibility="hidden"></rect></g></svg></g></svg>